<svg xmlns="http://www.w3.org/2000/svg" width="17.748" height="18.015" viewBox="0 0 17.748 18.015">
  <g id="Rebate" transform="translate(-164.227 -1098.185)">
    <g id="Group_2179" data-name="Group 2179" transform="translate(160.959 1096.279)">
      <g id="Group_2180" data-name="Group 2180">
        <path id="Subtraction_1" data-name="Subtraction 1" d="M21422.01,12289.471a8.874,8.874,0,1,1,7.4-3.981,1.564,1.564,0,0,0-.9-.824,7.7,7.7,0,1,0-1.262,1.53h.824l.109.771A8.822,8.822,0,0,1,21422.01,12289.471Z" transform="translate(-21409.869 -12269.816)" fill="#e77e06"/>
      </g>
      <path id="Path_1184" data-name="Path 1184" d="M0,3.059H3.059V0" transform="translate(15.207 19.32) rotate(-90)" fill="none" stroke="#e77e06" stroke-linecap="round" stroke-linejoin="round" stroke-width="1.2"/>
    </g>
    <path id="Path_1190" data-name="Path 1190" d="M6.475-12.826a.4.4,0,0,1,.246.071.265.265,0,0,1,.093.225.239.239,0,0,1-.1.2.381.381,0,0,1-.241.077h-.5a2.068,2.068,0,0,1-.75.931,2.008,2.008,0,0,1-1.167.351H1.787V-8.06a.319.319,0,0,1-.093.236.319.319,0,0,1-.236.093.319.319,0,0,1-.236-.093.319.319,0,0,1-.093-.236v-4.2H.538a.375.375,0,0,1-.246-.077A.255.255,0,0,1,.2-12.541a.254.254,0,0,1,.1-.2.364.364,0,0,1,.241-.082h.592v-.8H.538A.4.4,0,0,1,.291-13.7.24.24,0,0,1,.2-13.9a.255.255,0,0,1,.093-.208.375.375,0,0,1,.246-.077h.592v-.887a.319.319,0,0,1,.093-.236.319.319,0,0,1,.236-.093h2.6a2.1,2.1,0,0,1,1.161.323,1.924,1.924,0,0,1,.745.893h.515a.381.381,0,0,1,.241.077.25.25,0,0,1,.1.208.24.24,0,0,1-.093.2.4.4,0,0,1-.246.071H6.125a2.462,2.462,0,0,1,.033.405,2.4,2.4,0,0,1-.033.394Zm-1.238-1.3a1.4,1.4,0,0,0-.5-.46,1.406,1.406,0,0,0-.685-.164H1.787v.624ZM1.787-12.782H5.435a1.931,1.931,0,0,0,.044-.438,3.106,3.106,0,0,0-.044-.438H1.787Zm2.268,1.172a1.324,1.324,0,0,0,.7-.186,1.392,1.392,0,0,0,.493-.515H1.787v.7Z" transform="translate(170.136 1118.667)" fill="#e77e06" stroke="#e77e06" stroke-width="0.4"/>
  </g>
</svg>
