<svg xmlns="http://www.w3.org/2000/svg" width="68" height="79" viewBox="0 0 68 79">
  <g id="Group_2235" data-name="Group 2235" transform="translate(-10 -257)">
    <path id="NoPath_-_Copy_7_" data-name="NoPath - Copy (7)" d="M8,0H68a0,0,0,0,1,0,0V79a0,0,0,0,1,0,0H8a8,8,0,0,1-8-8V8A8,8,0,0,1,8,0Z" transform="translate(10 257)" fill="#fffae0"/>
    <path id="Path_1197" data-name="Path 1197" d="M0-9.565A2.337,2.337,0,0,0,.686-7.907L11.032,2.439a2.344,2.344,0,0,0,3.315,0l9.967-9.967a2.344,2.344,0,0,0,0-3.315L13.968-21.189a2.337,2.337,0,0,0-1.657-.686H2.344A2.344,2.344,0,0,0,0-19.531ZM5.469-18.75a2.344,2.344,0,0,1,2.344,2.344,2.344,2.344,0,0,1-2.344,2.344,2.344,2.344,0,0,1-2.344-2.344A2.344,2.344,0,0,1,5.469-18.75Z" transform="translate(31 306)" fill="#daba00"/>
  </g>
</svg>
