<svg xmlns="http://www.w3.org/2000/svg" width="68" height="79" viewBox="0 0 68 79">
  <g id="Group_2240" data-name="Group 2240" transform="translate(-10 -257)">
    <g id="Group_2234" data-name="Group 2234">
      <path id="NoPath_-_Copy_7_" data-name="NoPath - Copy (7)" d="M8,0H68a0,0,0,0,1,0,0V79a0,0,0,0,1,0,0H8a8,8,0,0,1-8-8V8A8,8,0,0,1,8,0Z" transform="translate(10 257)" fill="#fff1e2"/>
    </g>
    <g id="rebate" transform="translate(-138.225 -820.184)">
      <g id="Group_2179" data-name="Group 2179" transform="translate(164.224 1098.184)">
        <g id="Group_2180" data-name="Group 2180" transform="translate(0 0)">
          <path id="Path_1191" data-name="Path 1191" d="M18.333,0A18.333,18.333,0,1,1,0,18.333,18.333,18.333,0,0,1,18.333,0Z" fill="none"/>
          <path id="Subtraction_1" data-name="Subtraction 1" d="M18.329,36.665a18.333,18.333,0,1,1,15.3-8.225,3.226,3.226,0,0,0-1.856-1.7A15.9,15.9,0,1,0,29.162,29.9h1.707l.226,1.594A18.232,18.232,0,0,1,18.329,36.665Z" transform="translate(0.006 0.002)" fill="#e77e06"/>
        </g>
        <path id="Path_1184" data-name="Path 1184" d="M0,6.32H6.32V0" transform="translate(24.669 35.976) rotate(-90)" fill="none" stroke="#e77e06" stroke-linecap="round" stroke-linejoin="round" stroke-width="2"/>
      </g>
      <path id="Path_1190" data-name="Path 1190" d="M13.165-10.082a.816.816,0,0,1,.509.147.547.547,0,0,1,.192.464.494.494,0,0,1-.2.407.786.786,0,0,1-.5.158H12.124a4.272,4.272,0,0,1-1.55,1.924,4.149,4.149,0,0,1-2.41.724H3.479v6.02a.659.659,0,0,1-.192.487A.659.659,0,0,1,2.8.441.659.659,0,0,1,2.314.249a.659.659,0,0,1-.192-.487V-8.9H.9A.776.776,0,0,1,.39-9.063.528.528,0,0,1,.2-9.493a.525.525,0,0,1,.2-.419.752.752,0,0,1,.5-.17H2.122v-1.652H.9a.816.816,0,0,1-.509-.147A.5.5,0,0,1,.2-12.3a.528.528,0,0,1,.192-.43A.776.776,0,0,1,.9-12.888H2.122v-1.833a.659.659,0,0,1,.192-.487A.659.659,0,0,1,2.8-15.4H8.164a4.346,4.346,0,0,1,2.4.668A3.974,3.974,0,0,1,12.1-12.888h1.064a.786.786,0,0,1,.5.158.516.516,0,0,1,.2.43.5.5,0,0,1-.192.419.816.816,0,0,1-.509.147h-.724a5.085,5.085,0,0,1,.068.837,4.948,4.948,0,0,1-.068.815Zm-2.557-2.693a2.886,2.886,0,0,0-1.03-.95,2.905,2.905,0,0,0-1.414-.339H3.479v1.29ZM3.479-9.991h7.536a3.989,3.989,0,0,0,.091-.905,6.417,6.417,0,0,0-.091-.905H3.479ZM8.164-7.57a2.735,2.735,0,0,0,1.448-.385,2.876,2.876,0,0,0,1.018-1.064H3.479V-7.57Z" transform="translate(176.648 1124.084)" fill="#e77e06" stroke="#e77e06" stroke-width="0.6"/>
    </g>
  </g>
</svg>
