<svg xmlns="http://www.w3.org/2000/svg" width="68" height="79" viewBox="0 0 68 79">
  <g id="Group_2242" data-name="Group 2242" transform="translate(0 -303)">
    <g id="Group_2238" data-name="Group 2238" transform="translate(-10 46)">
      <path id="NoPath_-_Copy_7_" data-name="NoPath - Copy (7)" d="M8,0H68a0,0,0,0,1,0,0V79a0,0,0,0,1,0,0H8a8,8,0,0,1-8-8V8A8,8,0,0,1,8,0Z" transform="translate(10 257)" fill="#ffe9e6"/>
    </g>
    <path id="Path_1198" data-name="Path 1198" d="M1.75,0A1.748,1.748,0,0,0,3.5,1.75h8.75V-7H1.75Zm14,1.75H24.5A1.748,1.748,0,0,0,26.25,0V-7H15.75Zm10.5-17.5h-2.3a4.769,4.769,0,0,0,.552-2.187,4.82,4.82,0,0,0-4.812-4.812c-2.275,0-3.746,1.165-5.633,3.735-1.887-2.57-3.358-3.735-5.633-3.735a4.82,4.82,0,0,0-4.812,4.813,4.7,4.7,0,0,0,.552,2.188H1.75A1.748,1.748,0,0,0,0-14v4.375a.878.878,0,0,0,.875.875h26.25A.878.878,0,0,0,28-9.625V-14A1.748,1.748,0,0,0,26.25-15.75Zm-17.834,0a2.187,2.187,0,0,1-2.187-2.187,2.187,2.187,0,0,1,2.187-2.187c1.088,0,1.892.18,4.709,4.375Zm11.271,0H14.979c2.811-4.184,3.593-4.375,4.709-4.375a2.187,2.187,0,0,1,2.188,2.188A2.187,2.187,0,0,1,19.688-15.75Z" transform="translate(20 352)" fill="#d13f28"/>
  </g>
</svg>
